<svg width="20" height="20" viewBox="0 0 20 20" fill="none" xmlns="http://www.w3.org/2000/svg">
<g opacity="0.5">
<path d="M16.6667 7.5H9.16667C8.24619 7.5 7.5 8.24619 7.5 9.16667V16.6667C7.5 17.5871 8.24619 18.3333 9.16667 18.3333H16.6667C17.5871 18.3333 18.3333 17.5871 18.3333 16.6667V9.16667C18.3333 8.24619 17.5871 7.5 16.6667 7.5Z" stroke="black" stroke-linecap="round" stroke-linejoin="round"/>
<path d="M4.16724 12.5007H3.3339C2.89188 12.5007 2.46795 12.3251 2.15539 12.0125C1.84283 11.7 1.66724 11.2761 1.66724 10.834V3.33403C1.66724 2.892 1.84283 2.46807 2.15539 2.15551C2.46795 1.84295 2.89188 1.66736 3.3339 1.66736H10.8339C11.2759 1.66736 11.6999 1.84295 12.0124 2.15551C12.325 2.46807 12.5006 2.892 12.5006 3.33403V4.16736" stroke="black" stroke-linecap="round" stroke-linejoin="round"/>
</g>
</svg>
