<svg width="34" height="33" viewBox="0 0 34 33" fill="none" xmlns="http://www.w3.org/2000/svg">
<path d="M12.6573 17.3175C13.5583 17.3175 14.2887 16.5871 14.2887 15.6861C14.2887 14.7851 13.5583 14.0547 12.6573 14.0547C11.7563 14.0547 11.0259 14.7851 11.0259 15.6861C11.0259 16.5871 11.7563 17.3175 12.6573 17.3175Z" stroke="#607D8B" stroke-width="1.2" stroke-linecap="round" stroke-linejoin="round"/>
<path d="M22.4454 17.3175C23.3464 17.3175 24.0768 16.5871 24.0768 15.6861C24.0768 14.7851 23.3464 14.0547 22.4454 14.0547C21.5444 14.0547 20.814 14.7851 20.814 15.6861C20.814 16.5871 21.5444 17.3175 22.4454 17.3175Z" stroke="#607D8B" stroke-width="1.2" stroke-linecap="round" stroke-linejoin="round"/>
<path d="M11.0259 28.7373V32.0001H24.0771V28.7373" stroke="#607D8B" stroke-width="1.2" stroke-linecap="round" stroke-linejoin="round"/>
<path d="M18.3668 23.8428L17.5511 22.2114L16.7354 23.8428H18.3668Z" stroke="#607D8B" stroke-width="1.2" stroke-linecap="round" stroke-linejoin="round"/>
<path d="M24.0769 28.7373C24.6914 28.7369 25.2934 28.563 25.8134 28.2356C26.3335 27.9081 26.7504 27.4405 27.0164 26.8864C27.2823 26.3324 27.3864 25.7146 27.3166 25.104C27.2468 24.4934 27.006 23.915 26.6219 23.4353C28.4914 21.6281 29.7786 19.3038 30.3183 16.7602C30.858 14.2167 30.6256 11.5699 29.651 9.1593C28.6764 6.7487 27.004 4.68415 24.8482 3.23041C22.6923 1.77667 20.1514 1 17.5513 1C14.9511 1 12.4102 1.77667 10.2544 3.23041C8.09857 4.68415 6.42612 6.7487 5.45151 9.1593C4.4769 11.5699 4.24454 14.2167 4.78424 16.7602C5.32394 19.3038 6.61109 21.6281 8.48064 23.4353C8.09655 23.915 7.85575 24.4934 7.78597 25.104C7.71618 25.7146 7.82024 26.3324 8.08617 26.8864C8.3521 27.4405 8.76909 27.9081 9.28912 28.2356C9.80916 28.563 10.4111 28.7369 11.0256 28.7373" stroke="#607D8B" stroke-width="1.2" stroke-linecap="round" stroke-linejoin="round"/>
</svg>
